<svg width="95" height="111" viewBox="0 0 95 111" fill="none" xmlns="http://www.w3.org/2000/svg">
<rect x="32" y="38" width="33" height="31" rx="6" stroke="white" stroke-width="2"/>
<path d="M58 39C58 36.0826 56.9991 33.2847 55.2175 31.2218C53.4359 29.1589 51.0196 28 48.5 28C45.9804 28 43.5641 29.1589 41.7825 31.2218C40.0009 33.2847 39 36.0826 39 39L40.9809 39C40.9809 36.6909 41.7731 34.4765 43.1832 32.8437C44.5933 31.211 46.5058 30.2937 48.5 30.2937C50.4942 30.2937 52.4067 31.211 53.8168 32.8437C55.2269 34.4765 56.0191 36.6909 56.0191 39H58Z" fill="#D9D9D9"/>
</svg>
