<svg width="64" height="108" viewBox="0 0 64 108" fill="none" xmlns="http://www.w3.org/2000/svg">
<circle cx="31.5" cy="48.5" r="21.5" stroke="white" stroke-width="2"/>
<g filter="url(#filter0_d_328_195)">
<circle cx="31.5" cy="44.5" r="7" stroke="white" shape-rendering="crispEdges"/>
</g>
<path d="M45 66.5C45 64.2457 43.5777 62.0837 41.0459 60.4896C38.5142 58.8955 35.0804 58 31.5 58C27.9196 58 24.4858 58.8955 21.9541 60.4896C19.4223 62.0837 18 64.2457 18 66.5L20.1652 66.5C20.1652 64.6072 21.3594 62.792 23.4851 61.4536C25.6108 60.1152 28.4938 59.3633 31.5 59.3633C34.5062 59.3633 37.3892 60.1152 39.5149 61.4536C41.6406 62.792 42.8348 64.6072 42.8348 66.5H45Z" fill="#D9D9D9"/>
<defs>
<filter id="filter0_d_328_195" x="20" y="37" width="23" height="23" filterUnits="userSpaceOnUse" color-interpolation-filters="sRGB">
<feFlood flood-opacity="0" result="BackgroundImageFix"/>
<feColorMatrix in="SourceAlpha" type="matrix" values="0 0 0 0 0 0 0 0 0 0 0 0 0 0 0 0 0 0 127 0" result="hardAlpha"/>
<feOffset dy="4"/>
<feGaussianBlur stdDeviation="2"/>
<feComposite in2="hardAlpha" operator="out"/>
<feColorMatrix type="matrix" values="0 0 0 0 0 0 0 0 0 0 0 0 0 0 0 0 0 0 0.25 0"/>
<feBlend mode="normal" in2="BackgroundImageFix" result="effect1_dropShadow_328_195"/>
<feBlend mode="normal" in="SourceGraphic" in2="effect1_dropShadow_328_195" result="shape"/>
</filter>
</defs>
</svg>
